<svg width="63" height="63" viewBox="0 0 63 63" fill="none" xmlns="http://www.w3.org/2000/svg">
<ellipse cx="31.5" cy="31.6608" rx="31.5" ry="31.3393" fill="white"/>
<path d="M30.7257 30.9058V44.5666L53.8966 38.3054" stroke="#F1AC3B" stroke-width="1.47117"/>
<path d="M53.8966 38.8748V25.2139L30.7257 31.4751" stroke="#F1AC3B" stroke-width="1.47117"/>
<path d="M9.7616 38.8748V25.2139L31.2774 31.4751" stroke="#F1AC3B" stroke-width="1.47117"/>
<path d="M29.6224 30.9058V44.5666L9.76162 38.3054" stroke="#F1AC3B" stroke-width="1.47117"/>
<path d="M25.2089 36.0288L30.7257 30.906L9.20991 24.6448L5.89978 29.7676L25.2089 36.0288Z" fill="#FFBE55"/>
<path d="M30.7257 17.8143L53.8966 24.6448L57.7584 18.9527L32.9325 12.1223L30.7257 17.8143Z" fill="#FFBE55"/>
<path d="M30.7257 30.906L35.6909 36.0288L57.7584 29.7676L53.8966 24.6448L30.7257 30.906Z" fill="#FFBE55"/>
<path d="M9.20991 24.6448L30.7257 17.8143V12.1223L5.89978 20.0911L9.20991 24.6448Z" fill="#FFBE55"/>
<path d="M30.7257 30.906L35.6909 36.0288L57.7584 29.7676L53.8966 24.6448M30.7257 30.906L25.2089 36.0288L5.89978 29.7676L9.20991 24.6448M30.7257 30.906L53.8966 24.6448M30.7257 30.906L9.20991 24.6448M30.7257 30.906V24.3601V17.8143M30.7257 17.8143L9.20991 24.6448M30.7257 17.8143L53.8966 24.6448M30.7257 17.8143V12.1223L5.89978 20.0911L9.20991 24.6448M30.7257 17.8143L32.9325 12.1223L57.7584 18.9527L53.8966 24.6448" stroke="#FFBE55" stroke-width="1.47117"/>
<path d="M11.8868 50.7434V52.9978H10.5684V46.5994H13.0645C13.545 46.5994 13.9668 46.6873 14.3301 46.863C14.6963 47.0388 14.9776 47.2893 15.1739 47.6145C15.3702 47.9368 15.4683 48.3044 15.4683 48.7175C15.4683 49.3445 15.253 49.8396 14.8223 50.2029C14.3946 50.5632 13.8013 50.7434 13.0425 50.7434H11.8868ZM11.8868 49.6755H13.0645C13.4131 49.6755 13.6783 49.5935 13.8599 49.4294C14.0445 49.2654 14.1368 49.031 14.1368 48.7263C14.1368 48.4128 14.0445 48.1594 13.8599 47.9661C13.6753 47.7727 13.4205 47.6731 13.0953 47.6672H11.8868V49.6755ZM18.9971 52.9978C18.9385 52.8835 18.896 52.7415 18.8697 52.5715C18.5621 52.9143 18.1622 53.0857 17.67 53.0857C17.2041 53.0857 16.8174 52.9509 16.5098 52.6814C16.2051 52.4119 16.0528 52.072 16.0528 51.6619C16.0528 51.158 16.2388 50.7712 16.6109 50.5017C16.9859 50.2322 17.5264 50.0959 18.2325 50.093H18.8169V49.8206C18.8169 49.6008 18.7598 49.425 18.6456 49.2932C18.5342 49.1614 18.357 49.0955 18.1138 49.0955C17.9 49.0955 17.7315 49.1467 17.6084 49.2493C17.4883 49.3518 17.4283 49.4924 17.4283 49.6711H16.1583C16.1583 49.3958 16.2432 49.1409 16.4131 48.9065C16.5831 48.6721 16.8233 48.489 17.1338 48.3572C17.4444 48.2224 17.793 48.155 18.1797 48.155C18.7657 48.155 19.23 48.303 19.5728 48.5989C19.9185 48.8918 20.0914 49.3049 20.0914 49.8381V51.8992C20.0943 52.3503 20.1573 52.6917 20.2803 52.9231V52.9978H18.9971ZM17.9468 52.1145C18.1343 52.1145 18.3072 52.0735 18.4654 51.9915C18.6236 51.9065 18.7408 51.7937 18.8169 51.6531V50.8357H18.3423C17.7066 50.8357 17.3682 51.0554 17.3272 51.4949L17.3228 51.5696C17.3228 51.7278 17.3785 51.8582 17.4898 51.9607C17.6011 52.0632 17.7535 52.1145 17.9468 52.1145ZM22.4073 52.9978H21.1329V46.2478H22.4073V52.9978ZM27.7378 50.6643C27.7378 51.3967 27.5708 51.9841 27.2369 52.4265C26.9058 52.866 26.4576 53.0857 25.8921 53.0857C25.4117 53.0857 25.0235 52.9187 24.7276 52.5847V54.8259H23.4576V48.2429H24.6353L24.6792 48.7087C24.9869 48.3396 25.3882 48.155 25.8833 48.155C26.4693 48.155 26.9249 48.3718 27.25 48.8054C27.5752 49.239 27.7378 49.8367 27.7378 50.5984V50.6643ZM26.4678 50.572C26.4678 50.1296 26.3887 49.7883 26.2305 49.5481C26.0752 49.3079 25.8482 49.1877 25.5494 49.1877C25.1509 49.1877 24.877 49.3401 24.7276 49.6448V51.5916C24.8829 51.905 25.1597 52.0618 25.5582 52.0618C26.1646 52.0618 26.4678 51.5652 26.4678 50.572ZM29.8692 52.9978H28.5948V48.2429H29.8692V52.9978ZM28.5201 47.0125C28.5201 46.822 28.5831 46.6653 28.709 46.5422C28.8379 46.4192 29.0123 46.3577 29.232 46.3577C29.4488 46.3577 29.6216 46.4192 29.7505 46.5422C29.8794 46.6653 29.9439 46.822 29.9439 47.0125C29.9439 47.2058 29.878 47.364 29.7461 47.4871C29.6172 47.6101 29.4458 47.6716 29.232 47.6716C29.0181 47.6716 28.8453 47.6101 28.7134 47.4871C28.5845 47.364 28.5201 47.2058 28.5201 47.0125ZM32.44 47.074V48.2429H33.253V49.1746H32.44V51.5476C32.44 51.7234 32.4737 51.8494 32.5411 51.9255C32.6084 52.0017 32.7374 52.0398 32.9278 52.0398C33.0684 52.0398 33.1929 52.0295 33.3013 52.009V52.9714C33.0523 53.0476 32.7959 53.0857 32.5323 53.0857C31.6416 53.0857 31.1875 52.636 31.17 51.7366V49.1746H30.4756V48.2429H31.17V47.074H32.44ZM36.149 53.0857C35.4517 53.0857 34.8833 52.8718 34.4439 52.4441C34.0074 52.0164 33.7891 51.4465 33.7891 50.7346V50.6116C33.7891 50.134 33.8814 49.7078 34.066 49.3328C34.2505 48.9548 34.5113 48.6648 34.8482 48.4626C35.188 48.2576 35.5748 48.155 36.0083 48.155C36.6587 48.155 37.17 48.3601 37.542 48.7703C37.917 49.1804 38.1045 49.762 38.1045 50.5149V51.0334H35.0767C35.1177 51.344 35.2408 51.593 35.4458 51.7805C35.6539 51.968 35.9161 52.0618 36.2325 52.0618C36.7217 52.0618 37.1041 51.8845 37.3794 51.53L38.0035 52.2288C37.813 52.4983 37.5552 52.7092 37.23 52.8616C36.9048 53.011 36.5445 53.0857 36.149 53.0857ZM36.004 49.1833C35.752 49.1833 35.5469 49.2683 35.3887 49.4382C35.2334 49.6082 35.1338 49.8513 35.0899 50.1677H36.8565V50.0667C36.8506 49.7854 36.7745 49.5686 36.628 49.4163C36.4815 49.261 36.2735 49.1833 36.004 49.1833ZM38.9131 52.9978V46.5994H41.1543C41.9307 46.5994 42.5196 46.7488 42.9209 47.0476C43.3223 47.3435 43.523 47.7786 43.523 48.3528C43.523 48.6663 43.4424 48.9431 43.2813 49.1833C43.1202 49.4207 42.896 49.595 42.6089 49.7063C42.9371 49.7883 43.1949 49.9539 43.3824 50.2029C43.5728 50.4519 43.668 50.7566 43.668 51.1169C43.668 51.7322 43.4717 52.198 43.0791 52.5144C42.6866 52.8308 42.127 52.9919 41.4004 52.9978H38.9131ZM40.2315 50.2117V51.9387H41.3609C41.6714 51.9387 41.9131 51.8655 42.086 51.719C42.2618 51.5696 42.3497 51.3645 42.3497 51.1038C42.3497 50.5178 42.0464 50.2205 41.44 50.2117H40.2315ZM40.2315 49.28H41.2071C41.8721 49.2683 42.2046 49.0032 42.2046 48.4846C42.2046 48.1946 42.1197 47.9866 41.9498 47.8606C41.7828 47.7317 41.5176 47.6672 41.1543 47.6672H40.2315V49.28ZM44.3799 50.5764C44.3799 50.1047 44.4707 49.6843 44.6524 49.3152C44.834 48.946 45.0948 48.6604 45.4346 48.4583C45.7774 48.2561 46.1744 48.155 46.6255 48.155C47.2671 48.155 47.7901 48.3513 48.1944 48.7439C48.6016 49.1365 48.8287 49.6697 48.8755 50.3435L48.8843 50.6687C48.8843 51.3982 48.6807 51.9841 48.2735 52.4265C47.8663 52.866 47.3199 53.0857 46.6343 53.0857C45.9488 53.0857 45.4009 52.866 44.9908 52.4265C44.5835 51.9871 44.3799 51.3894 44.3799 50.6335V50.5764ZM45.6499 50.6687C45.6499 51.1199 45.7349 51.4656 45.9048 51.7058C46.0748 51.9431 46.3179 52.0618 46.6343 52.0618C46.9419 52.0618 47.1822 51.9446 47.355 51.7102C47.5279 51.4729 47.6143 51.095 47.6143 50.5764C47.6143 50.134 47.5279 49.7913 47.355 49.5481C47.1822 49.3049 46.939 49.1833 46.6255 49.1833C46.315 49.1833 46.0748 49.3049 45.9048 49.5481C45.7349 49.7883 45.6499 50.1619 45.6499 50.6687ZM51.3804 49.6624L52.1802 48.2429H53.5381L52.1846 50.572L53.5953 52.9978H52.233L51.3848 51.5037L50.5411 52.9978H49.1744L50.585 50.572L49.2359 48.2429H50.5982L51.3804 49.6624Z" fill="black"/>
</svg>
